<?xml version="1.0" encoding="UTF-8"?>
<svg id="Calque_1" data-name="Calque 1" xmlns="http://www.w3.org/2000/svg" viewBox="0 0 1000 1000">
  <defs>
    <style>
      .cls-1 {
        fill: #c18a53;
      }
    </style>
  </defs>
  <polygon class="cls-1" points="845.25 464.09 852.85 409.28 849.19 343.2 784.81 344.47 723.43 343.89 662.09 343.25 600.8 352.5 544.24 353.21 541.62 409.85 540.82 471.23 546.45 532.53 540.76 593.92 544.15 652.75 603.06 654.51 664.42 651.42 733.12 651.86 787.14 656.8 848.2 652.75 851.56 591.61 856.48 530.19 845.25 464.09"/>
  <polygon class="cls-1" points="143.52 499.19 154.2 450.3 175.32 405.22 205.62 362.86 253.64 342.14 304.67 340.16 356.74 338.92 397.51 371.39 445.51 396.86 470.71 445.25 478.9 499.19 461.15 550.04 442.23 599.14 402.27 633.54 353.11 648.28 304.67 661.08 254.11 654.78 210.53 628.77 174.97 593.42 155.45 547.68 143.52 499.19"/>
</svg>