<svg width="80" height="93" viewBox="0 0 80 93" fill="none" xmlns="http://www.w3.org/2000/svg">
<path d="M71.1899 78.3799C56.1975 90.2224 37.9256 78.0919 32.5557 74.1684C31.943 73.7185 31.0601 73.9525 30.7537 74.6544C26.9336 83.2393 19.9059 93.57 9.81486 92.0762C4.71529 91.3203 0.768979 85.705 2.69709 80.7196C4.12064 77.0301 8.10299 75.9682 10.6438 73.2505C24.4288 58.6004 23.9783 23.9187 44.0522 16.4317C49.1518 14.5239 54.7199 16.5037 54.5037 20.9491C54.3055 25.4125 51.2601 26.5824 48.8995 29.48C46.539 32.3777 40.7727 42.1324 38.7545 48.1797C38.1418 49.9795 35.3307 58.8523 34.5198 61.444C34.4117 61.786 34.4658 62.1819 34.664 62.4699C37.9075 67.0773 49.4582 71.3248 56.5219 66.6814C65.3335 60.8861 59.9456 49.2055 52.9179 47.4058C50.9718 46.9018 50.0888 45.282 50.7556 43.5363C51.4583 41.6825 52.3413 41.2326 54.3595 40.5666C58.2518 39.2708 61.2971 36.1032 63.2252 31.9817C69.3699 18.8434 62.6486 9.17857 47.3499 9.17857C39.3311 9.17857 32.1052 13.0841 26.393 19.9052C22.6629 24.3687 18.3201 32.0357 17.239 36.9671C16.5903 39.9547 14.8604 47.5858 8.60754 48.2517C-1.37536 49.3135 -1.30328 38.6769 1.9763 30.5959C10.8059 8.78262 42.2323 -6.19151 64.5587 2.5194C83.6775 9.97047 84.2542 33.1516 68.9014 44.3102C68.0545 44.9401 68.0545 46.2179 68.9014 46.8478C69.8925 47.5678 71.0818 48.5216 72.235 49.5835C80.9025 57.4485 80.3078 71.1628 71.1719 78.3799" fill="#6E57AE"/>
</svg>
