<svg width="45" height="58" viewBox="0 0 45 58" fill="none" xmlns="http://www.w3.org/2000/svg">
<path d="M40.25 45.67C40.54 45.19 40.8 44.68 41.06 44.17C41.16 43.98 41.27 43.8 41.36 43.6C41.7 42.9 42.03 42.17 42.32 41.43C42.39 41.26 42.44 41.07 42.51 40.89C42.73 40.32 42.94 39.74 43.12 39.15C43.23 38.82 43.31 38.47 43.41 38.13C43.54 37.68 43.67 37.23 43.77 36.77C43.86 36.38 43.93 35.99 44.01 35.6C44.08 35.27 44.16 34.94 44.22 34.6V34.51C44.54 32.58 44.73 30.58 44.73 28.53C44.73 26.48 44.55 24.55 44.24 22.65V22.57C44.17 22.17 44.08 21.78 44 21.38C43.93 21.04 43.87 20.7 43.79 20.36C43.65 19.75 43.48 19.16 43.31 18.57C43.25 18.37 43.21 18.17 43.15 17.98C42.66 16.39 42.05 14.88 41.35 13.45C41.28 13.31 41.2 13.17 41.13 13.03C40.84 12.47 40.55 11.92 40.24 11.38C40.13 11.2 40.01 11.02 39.9 10.84C39.61 10.37 39.31 9.9 38.99 9.45C38.95 9.39 38.92 9.33 38.88 9.28V9.3C34.8 3.6 28.92 0 22.37 0C10.02 0 0 12.77 0 28.54C0 44.31 10.02 57.08 22.37 57.08C28.92 57.08 34.8 53.48 38.89 47.75V47.77C38.93 47.71 38.97 47.65 39.01 47.59C39.3 47.18 39.57 46.75 39.84 46.31C39.98 46.09 40.12 45.88 40.25 45.66V45.67ZM11.83 10.82C14.71 7.6 18.38 5.67 22.37 5.67C30.63 5.67 37.5 13.91 38.84 24.71C38.88 25.03 38.45 25.14 38.3 24.86C36.45 21.33 31.83 19.54 28.4 22.48C25.88 24.63 25.92 29.15 29.28 30.37C30.85 30.93 32.99 30.16 33.15 28.32C33.21 27.58 32.74 26.65 31.87 26.74C31.33 26.81 31.43 27.21 31.29 27.54C31.18 27.79 30.9 27.89 30.64 27.87C29.71 27.77 29.36 26.65 29.6 25.85C30.15 24.06 32.34 23.7 33.83 24.45C37.22 26.14 36.51 30.95 33.51 32.71C29.04 35.34 23.84 31.69 23.58 26.8C23.48 24.95 24 24.04 24.49 22.37C25.6 18.63 24.39 14.36 21.23 12.03C18.47 9.99 14.89 9.76 12.16 11.27C11.89 11.42 11.62 11.06 11.83 10.82ZM6.92 35.02C6.88 35.33 6.43 35.35 6.36 35.05C5.91 32.98 5.67 30.8 5.67 28.54C5.67 24.49 6.44 20.7 7.79 17.4C7.91 17.11 8.34 17.2 8.34 17.51C8.3 20.59 10.34 23.53 13.77 23.82C16.85 24.07 19.96 21.02 18.48 17.96C17.81 16.57 15.66 15.54 14.51 16.91C14.44 17 14.22 17.32 14.19 17.39C14.07 17.77 14.15 18.38 14.53 18.58C14.89 18.76 15 18.55 15.3 18.5C15.72 18.43 16.04 18.94 16.03 19.32C15.99 20.46 14.67 21.05 13.67 20.8C10.63 20.06 10.77 15.96 13.03 14.31C15.68 12.38 19.3 13.45 20.92 16.16C23.18 19.92 21.1 24.69 17.22 26.26C15.92 26.79 14.51 26.82 13.19 27.28C9.74 28.49 7.32 31.58 6.92 35.02ZM22.37 51.41C17.1 51.41 12.39 48.04 9.33 42.79C9.17 42.52 9.52 42.24 9.76 42.44C12.12 44.45 15.54 45.04 18.43 43.24C21.31 41.43 22.46 37.41 20.28 34.62C18.72 32.63 15.48 31.99 13.68 34.06C12.64 35.26 12.52 37.59 14.19 38.26C14.8 38.51 15.74 38.39 15.91 37.64C16.03 37.08 15.51 37.09 15.41 36.72C15.25 36.18 15.81 35.75 16.29 35.68C17.62 35.5 18.48 36.93 18.41 38.1C18.25 41.03 14.73 41.96 12.46 40.68C9.65 39.1 9.25 35.35 10.88 32.82C13.5 28.76 19.16 28.89 22.29 32.3C23.64 33.78 24.42 34.85 26.35 35.74C30.96 37.87 36.39 35.89 38.36 31.71C38.5 31.42 38.93 31.54 38.89 31.86C37.71 42.9 30.76 51.41 22.37 51.41Z" fill="#EF4848"/>
</svg>
