<svg width="173" height="120" viewBox="0 0 173 120" fill="none" xmlns="http://www.w3.org/2000/svg">
<path d="M159.403 65.3445H10.4961L16.4442 35.4351C18.1212 27.0378 24.9259 20.6072 33.3956 19.4127L172.011 0L159.403 65.3324V65.3445ZM23.5626 54.6186H150.535L158.619 12.7166L34.8796 30.0541C30.9223 30.6091 27.7371 33.6133 26.9529 37.5345L23.5626 54.6186Z" fill="#6C8CBC"/>
<path d="M0 119.952L12.608 54.6191H161.515L155.567 84.5285C153.902 92.9137 147.085 99.3565 138.616 100.551L0.0120585 119.964L0 119.952ZM21.4638 65.345L13.3802 107.259L137.12 89.9216C141.077 89.3666 144.262 86.3624 145.046 82.4412L148.437 65.3571H21.4638V65.345Z" fill="#6C8CBC"/>
</svg>
