<svg width="70" height="90" viewBox="0 0 70 90" fill="none" xmlns="http://www.w3.org/2000/svg">
<path d="M67.45 50.56C66.11 46.57 64.07 43.26 61.37 40.73C60.78 40.17 60.14 39.69 59.49 39.24C59.96 35.7 60.21 31.85 60.21 27.62V0H57.73C54.69 2.99 51.12 5.13 47.02 6.41C42.92 7.7 38.1 8.33 32.56 8.33V10.81H33.04C38.26 10.81 40.88 13.62 40.88 19.23V33.97C40.88 36.26 40.85 38.41 40.78 40.44C39.39 41.46 38.09 42.64 36.87 43.99C34.96 46.09 33.16 48.45 31.52 51C29.88 53.54 28.29 56.13 26.78 58.71C25.13 61.5 23.49 64.12 21.9 66.49C20.33 68.83 18.69 70.75 17.02 72.2C15.41 73.6 13.71 74.28 11.84 74.28C10.21 74.28 8.81 73.75 7.57 72.68C6.3 71.58 5.3 70.16 4.59 68.44C3.87 66.71 3.5 64.9 3.5 63.07C3.5 60.57 4.31 58.29 5.9 56.3C6.91 55.04 8.35 54.16 10.19 53.66C10.58 54.84 11.1 56.04 11.74 57.25C13.42 60.43 15.95 63.08 19.33 65.22C19.63 65.41 19.94 65.58 20.25 65.75C20.32 65.66 20.39 65.57 20.46 65.47C22.02 63.14 23.6 60.62 25.21 57.9C25.05 57.13 24.97 56.41 24.97 55.76C24.97 54.63 25.1 53.66 25.37 52.84C25.43 52.68 25.48 52.53 25.54 52.37C25.84 52.09 26.13 51.78 26.38 51.43C27.63 49.7 28.28 47.77 28.28 45.69C28.28 43.41 27.52 41.37 26.01 39.63C24.49 37.87 22.12 36.93 18.97 36.83C14.77 36.83 11.2 38.15 8.36 40.75C5.57 43.31 3.45 46.64 2.07 50.65C0.7 54.63 0 58.83 0 63.12C0 67.41 0.69 71.61 2.04 75.55C3.4 79.54 5.46 82.85 8.15 85.41C10.89 88.02 14.35 89.33 18.42 89.33C21.29 89.33 23.93 88.66 26.28 87.34C28.6 86.03 30.74 84.29 32.66 82.15C34.56 80.03 36.37 77.67 38.03 75.12C39.68 72.59 41.27 69.99 42.74 67.42C44.38 64.63 46.03 62.01 47.62 59.64C49.19 57.3 50.83 55.38 52.5 53.93C54.11 52.53 55.77 51.85 57.6 51.85C59.28 51.85 60.69 52.37 61.91 53.44C63.16 54.55 64.16 55.97 64.87 57.68C65.59 59.41 65.96 61.22 65.96 63.06C65.96 65.64 65.15 67.95 63.56 69.89C62 71.8 59.4 72.83 55.88 72.96C54.81 72.96 53.76 72.81 52.77 72.51C51.65 72.17 50.33 71.99 48.84 71.99C46.37 71.99 44.44 72.9 43.14 74.7C41.89 76.43 41.24 78.36 41.24 80.44C41.24 82.62 41.99 84.64 43.47 86.45C44.97 88.29 47.28 89.27 50.35 89.37C54.64 89.37 58.26 88.05 61.09 85.45C63.87 82.9 65.99 79.57 67.38 75.55C68.75 71.57 69.45 67.35 69.45 63.01C69.45 58.67 68.77 54.52 67.44 50.58H67.43L67.45 50.56ZM27.96 59.4C29.46 56.84 31.05 54.27 32.67 51.74C34.27 49.25 36.03 46.96 37.88 44.91C38.78 43.93 39.72 43.03 40.71 42.23C40.5 47.03 40.1 51.06 39.52 54.32C38.08 61.9 35.41 65.69 31.53 65.69C30.14 65.69 28.96 65.1 27.97 63.93C27.42 63.27 26.94 62.56 26.54 61.77C27.02 60.99 27.49 60.2 27.97 59.39L27.96 59.4ZM36.87 74.38C35.24 76.87 33.48 79.18 31.62 81.25C29.8 83.27 27.77 84.93 25.59 86.16C23.45 87.36 21.04 87.97 18.41 87.97C14.7 87.97 11.56 86.77 9.09 84.43C6.56 82.03 4.63 78.9 3.34 75.13C2.04 71.32 1.38 67.29 1.38 63.15C1.38 59.01 2.05 54.97 3.38 51.13C4.69 47.34 6.68 44.21 9.3 41.8C10.16 41.01 11.11 40.36 12.11 39.84C11.94 40.03 11.76 40.23 11.6 40.44C10.03 42.55 9.24 45.07 9.24 48.01C9.24 49.44 9.44 50.88 9.82 52.36C7.7 52.94 6.03 53.97 4.84 55.46C3.05 57.7 2.14 60.26 2.14 63.09C2.14 65.11 2.54 67.09 3.33 68.99C4.13 70.9 5.26 72.51 6.69 73.74C8.17 75.03 9.91 75.67 11.87 75.67C14.05 75.67 16.09 74.85 17.95 73.25C19.71 71.72 21.43 69.71 23.07 67.27C23.12 67.2 23.17 67.12 23.21 67.06C25.81 67.97 28.77 68.44 32.11 68.44C35.45 68.44 38.62 67.91 41.49 66.87C40.05 69.39 38.51 71.92 36.89 74.39L36.87 74.38ZM66.08 75.08C64.76 78.87 62.77 82.02 60.16 84.41C57.59 86.77 54.29 87.97 50.37 87.97C47.7 87.88 45.79 87.09 44.53 85.56C43.26 84.01 42.61 82.28 42.61 80.43C42.61 78.58 43.14 77.02 44.24 75.51C45.28 74.07 46.78 73.37 48.82 73.37C50.17 73.37 51.36 73.52 52.35 73.83C53.47 74.17 54.64 74.34 55.88 74.34C59.84 74.19 62.77 72.99 64.6 70.77C66.4 68.57 67.31 65.98 67.31 63.07C67.31 61.05 66.91 59.06 66.12 57.16C65.33 55.25 64.21 53.66 62.8 52.41C61.35 51.12 59.59 50.48 57.58 50.48C57.31 50.48 57.05 50.49 56.78 50.52C57.87 47.66 58.7 44.41 59.26 40.8C59.66 41.1 60.05 41.41 60.41 41.75C62.94 44.13 64.86 47.24 66.12 51.01C67.4 54.81 68.05 58.85 68.05 63C68.05 67.15 67.38 71.26 66.05 75.09H66.07L66.08 75.08Z" fill="#FAF4E0"/>
</svg>
