<svg width="155" height="262" viewBox="0 0 155 262" fill="none" xmlns="http://www.w3.org/2000/svg">
<path d="M114.431 1.44525C115.553 2.01789 118.425 0.163613 120.695 0.299957C133.852 1.17256 140.855 6.35364 151.085 13.0072C151.604 13.3345 155.133 17.8884 154.996 18.4337C150.073 26.5871 143.289 17.3703 139.624 16.0886C136.916 15.1615 124.005 12.2437 121.133 11.8892C115.006 11.1257 99.6607 12.8982 94.956 17.1248C92.3574 19.47 90.1965 25.0873 88.6647 26.7507C87.7347 27.7324 86.0662 27.2143 85.7379 28.1415C83.0026 36.1585 79.7202 47.9932 77.8602 56.4465C77.6414 57.4282 78.2432 60.5096 77.997 60.8368C77.6414 61.3004 75.754 61.6003 75.7267 62.2275C75.7267 62.3911 77.2585 63.4001 77.3952 64.7635C77.7508 68.1449 75.0429 78.9433 74.5505 83.4427C73.8667 89.4964 74.1129 95.0865 72.964 101.304C71.104 111.448 64.676 129.254 55.4033 134.326C54.2545 134.954 52.3945 134.19 51.0815 134.626C49.878 135.008 49.96 136.644 49.6044 136.944C48.8659 137.517 45.8571 134.708 46.3768 137.462C47.0059 140.762 50.9721 140.762 51.355 141.28C51.4644 141.416 50.5344 142.616 50.9994 143.652C52.0389 146.052 56.1145 149.624 57.3454 151.588C71.7058 174.412 67.9857 210.543 85.4371 233.858C86.8868 235.794 89.7041 236.312 89.8409 236.557C90.4153 237.512 89.5127 239.53 90.0871 240.484C90.6068 241.357 102.533 246.292 104.393 246.701C105.76 247.001 106.909 246.374 107.894 246.538C109.754 246.838 112.818 248.337 114.513 247.847C120.121 246.156 127.123 240.348 131.035 236.012C132.129 234.785 133.524 231.485 134.399 230.967C135.931 230.04 137.6 231.731 138.885 231.349C140.225 230.967 140.225 228.186 142.386 227.995C144.547 227.804 146.052 230.967 148.65 228.895C150.428 235.576 148.404 240.266 144.328 245.501L142.797 244.765C142.824 246.292 143.973 247.274 143.262 248.91C141.785 252.21 128.217 262.108 124.771 261.999C124.169 261.999 123.294 260.772 122.227 260.663C120.176 260.445 113.912 262.299 109.973 261.863C103.463 261.126 85.1088 253.437 80.0211 249.292C77.4773 247.219 77.4499 244.002 72.7726 243.947C74.1129 240.511 70.5843 241.138 68.9705 238.548C63.6092 229.931 59.0413 219.978 56.2239 209.507C53.0509 197.781 52.8868 187.31 48.6744 176.92C47.0606 172.939 48.6197 169.721 46.4041 166.667L48.0727 165.44C43.4773 165.058 45.8844 160.014 44.7082 158.432C43.6141 156.959 41.5352 157.15 40.9335 156.251C39.4838 154.069 39.1282 152.024 35.9279 149.57C31.524 146.188 22.6342 141.253 17.0815 139.944C12.8418 138.935 8.21911 139.589 3.04936 137.244C-0.807433 135.499 -1.05361 128.273 2.58436 126.364C6.8241 124.155 10.5441 126.8 14.9753 126.991C21.9777 127.291 26.8193 124.864 32.8917 123.282C33.6575 123.092 35.1346 123.882 35.4355 123.664C35.8184 123.364 35.5449 120.856 36.5296 120.528C37.5143 120.201 40.3044 120.528 42.3285 119.301C48.5377 115.593 55.3212 105.421 57.6736 98.6042C64.9769 77.5799 60.573 45.1845 70.2561 26.7507C71.104 25.1146 71.4322 25.4146 72.7726 22.6331C79.2826 9.27141 100.81 3.24499 113.884 0L114.431 1.41798V1.44525Z" fill="#DAD4CB"/>
<path d="M145.86 147.388L149.416 153.36C147.775 155.514 147.447 159.495 146.489 161.268C143.836 166.231 122.692 185.155 117.358 187.446C116.045 187.991 114.924 187.255 114.404 187.473C110.465 189.273 111.997 189.546 106.417 190.009C105.733 190.064 105.186 191.155 104.174 190.991C100.919 190.527 96.7066 184.583 99.5239 182.156C100.509 181.311 106.061 178.638 107.812 177.766C109.015 177.166 109.152 177.629 111.532 176.348C118.288 172.666 127.78 167.267 130.105 159.714C127.178 159.141 127.26 156.25 125.892 154.26C123.786 151.206 120.066 150.933 125.263 145.888C132.539 138.853 138.612 143.489 145.86 147.361V147.388Z" fill="#DAD4CB"/>
<path d="M12.2947 66.3451C14.8386 63.7273 19.4613 61.1913 23.2086 61.9003C26.6551 62.5547 33.9311 69.3174 35.2167 72.5351C38.3896 80.5249 29.1443 89.36 21.5674 89.1146C20.446 89.1146 19.8442 88.2147 18.9689 88.0784C16.3703 87.6148 15.6045 89.4146 12.4588 86.006C7.20704 80.3068 6.74204 71.9625 12.2674 66.3451H12.2947Z" fill="#DAD4CB"/>
<path d="M137.463 66.3178C137.764 66.5087 141.894 69.8901 142.304 70.2718C145.942 73.8713 146.681 79.3523 144.164 83.7154C140.718 89.6327 133.141 92.2505 126.631 90.778C122.419 89.8236 123.403 88.5965 121.899 86.7149C121.297 85.9514 120.121 85.7878 119.765 85.2424C119.109 84.2062 119.437 80.225 119.136 78.9979C118.999 78.4252 117.659 78.6434 117.604 78.1253C117.44 75.8074 120.422 70.6263 122.118 68.8538C126.576 64.2999 131.801 62.6365 137.463 66.3451V66.3178Z" fill="#DAD4CB"/>
</svg>
