<svg width="216" height="216" viewBox="0 0 216 216" fill="none" xmlns="http://www.w3.org/2000/svg">
<path d="M123.04 162.18C113.37 157.07 106.96 146.43 104 130.54C83.5298 130.25 56.0998 127.32 41.9498 120.01C47.8298 151.2 75.6198 174.42 107.63 174.42C119.41 174.42 130.79 171.36 140.88 165.52C134.24 166.1 128.25 164.95 123.04 162.18Z" fill="#FF3636"/>
<path d="M87.0998 62.64C83.3798 60.66 78.8198 60 73.5298 60.71C60.3798 62.51 49.2698 72.02 44.5298 85.52C43.4398 88.68 42.5798 91.91 41.9698 95.16C58.0298 86.8 88.6798 85.07 100.11 84.71C97.7298 73.39 93.3598 65.97 87.0998 62.64Z" fill="#FF3636"/>
<path d="M155.88 114.71C168.08 111.64 171.44 108.47 172.17 107.59C171.44 106.71 168.08 103.54 155.88 100.47C144.22 97.56 128.9 95.83 112.62 95.56C112.91 99.09 113.05 103.04 113.05 107.59C113.05 111.59 113.23 115.63 113.58 119.62C129.67 119.27 144.65 117.53 155.88 114.71Z" fill="#FF3636"/>
<path d="M43.0598 107.59C43.7898 108.47 47.1498 111.64 59.3498 114.71C71.0198 117.61 86.3398 119.35 102.62 119.62C102.33 115.7 102.18 111.66 102.18 107.59C102.18 103.15 102.01 99.21 101.66 95.56C85.5598 95.91 70.5698 97.65 59.3498 100.47C47.1498 103.54 43.7898 106.71 43.0598 107.59Z" fill="#FF3636"/>
<path d="M107.64 40.76C95.8098 40.76 84.3898 43.83 74.2898 49.69C80.9698 49.12 86.9598 50.23 92.1798 53.01C101.91 58.15 108.32 68.79 111.22 84.65C132.7 85 159.36 87.95 173.31 95.17C167.38 63.98 139.59 40.7701 107.63 40.7701L107.64 40.76Z" fill="#FF3636"/>
<path d="M128.14 152.53C131.88 154.57 136.44 155.22 141.7 154.46C154.86 152.66 165.98 143.15 170.71 129.65C171.82 126.54 172.7 123.31 173.32 120.01C157.28 128.37 126.58 130.1 115.13 130.45C117.5 141.76 121.87 149.19 128.14 152.52V152.53Z" fill="#FF3636"/>
<path d="M0.0498047 0.0500488V215.13H215.18V0.0500488H0.0498047ZM184.74 117.73C180.37 152.16 152.19 180.32 117.73 184.69C114.35 185.12 110.98 185.33 107.64 185.33C87.0298 185.33 67.4098 177.29 52.6498 162.53C35.4998 145.38 27.4198 121.66 30.4898 97.45C34.9198 63.02 63.0998 34.85 97.4998 30.49C121.68 27.42 145.41 35.5 162.57 52.66C179.73 69.82 187.81 93.54 184.74 117.73Z" fill="#FF3636"/>
<path d="M123.04 162.18C113.37 157.07 106.96 146.43 104 130.54C83.5298 130.25 56.0998 127.32 41.9498 120.01C47.8298 151.2 75.6198 174.42 107.63 174.42C119.41 174.42 130.79 171.36 140.88 165.52C134.24 166.1 128.25 164.95 123.04 162.18Z" stroke="#565656" stroke-width="0.1" stroke-miterlimit="10"/>
<path d="M87.0998 62.64C83.3798 60.66 78.8198 60 73.5298 60.71C60.3798 62.51 49.2698 72.02 44.5298 85.52C43.4398 88.68 42.5798 91.91 41.9698 95.16C58.0298 86.8 88.6798 85.07 100.11 84.71C97.7298 73.39 93.3598 65.97 87.0998 62.64Z" stroke="#565656" stroke-width="0.1" stroke-miterlimit="10"/>
<path d="M155.88 114.71C168.08 111.64 171.44 108.47 172.17 107.59C171.44 106.71 168.08 103.54 155.88 100.47C144.22 97.56 128.9 95.83 112.62 95.56C112.91 99.09 113.05 103.04 113.05 107.59C113.05 111.59 113.23 115.63 113.58 119.62C129.67 119.27 144.65 117.53 155.88 114.71Z" stroke="#565656" stroke-width="0.1" stroke-miterlimit="10"/>
<path d="M43.0598 107.59C43.7898 108.47 47.1498 111.64 59.3498 114.71C71.0198 117.61 86.3398 119.35 102.62 119.62C102.33 115.7 102.18 111.66 102.18 107.59C102.18 103.15 102.01 99.21 101.66 95.56C85.5598 95.91 70.5698 97.65 59.3498 100.47C47.1498 103.54 43.7898 106.71 43.0598 107.59Z" stroke="#565656" stroke-width="0.1" stroke-miterlimit="10"/>
<path d="M107.64 40.76C95.8098 40.76 84.3898 43.83 74.2898 49.69C80.9698 49.12 86.9598 50.23 92.1798 53.01C101.91 58.15 108.32 68.79 111.22 84.65C132.7 85 159.36 87.95 173.31 95.17C167.38 63.98 139.59 40.7701 107.63 40.7701L107.64 40.76Z" stroke="#565656" stroke-width="0.1" stroke-miterlimit="10"/>
<path d="M128.14 152.53C131.88 154.57 136.44 155.22 141.7 154.46C154.86 152.66 165.98 143.15 170.71 129.65C171.82 126.54 172.7 123.31 173.32 120.01C157.28 128.37 126.58 130.1 115.13 130.45C117.5 141.76 121.87 149.19 128.14 152.52V152.53Z" stroke="#565656" stroke-width="0.1" stroke-miterlimit="10"/>
<path d="M0.0498047 0.0500488V215.13H215.18V0.0500488H0.0498047ZM184.74 117.73C180.37 152.16 152.19 180.32 117.73 184.69C114.35 185.12 110.98 185.33 107.64 185.33C87.0298 185.33 67.4098 177.29 52.6498 162.53C35.4998 145.38 27.4198 121.66 30.4898 97.45C34.9198 63.02 63.0998 34.85 97.4998 30.49C121.68 27.42 145.41 35.5 162.57 52.66C179.73 69.82 187.81 93.54 184.74 117.73Z" stroke="#565656" stroke-width="0.1" stroke-miterlimit="10"/>
</svg>
