<svg width="75" height="52" viewBox="0 0 75 52" fill="none" xmlns="http://www.w3.org/2000/svg">
<path d="M39.8948 50.09L73.4848 18.17C74.8948 16.83 75.0448 14.63 73.8248 13.12L64.3748 1.39C63.6548 0.51 62.5848 0 61.4548 0H13.1748C12.0448 0 10.9748 0.51 10.2648 1.39L0.824798 13.12C-0.395202 14.63 -0.245202 16.83 1.1648 18.17L34.7548 50.09C36.1948 51.46 38.4648 51.46 39.9048 50.09H39.8948Z" fill="#FFED00"/>
<path d="M18.2548 12.74C16.1848 11.22 15.9748 10.46 15.9748 8.97C15.9748 6.97 16.5348 6.69 17.1448 6.69C17.8748 6.69 18.3048 7.07 18.3048 9.01V10.54H22.6648V8.91C22.6648 4.87 20.8348 2.82 17.2148 2.81C15.5348 2.81 14.2048 3.28 13.2648 4.22C12.1448 5.34 11.5948 7.07 11.5948 9.49C11.5948 13.22 13.1448 14.64 15.6748 16.64C18.2448 18.67 18.6648 19.38 18.6648 21.76C18.6648 24.14 17.8348 24.33 17.2048 24.33C16.4248 24.33 15.6148 24.04 15.6148 21.91V20.08H11.2248V21.85C11.2248 26.04 13.1948 28.17 17.0748 28.17C20.9548 28.17 23.0748 25.76 23.0748 21.21C23.0748 17.01 21.8748 15.41 18.2548 12.74ZM58.8948 12.74C56.8248 11.22 56.6148 10.46 56.6148 8.97C56.6148 6.97 57.1748 6.69 57.7848 6.69C58.5148 6.69 58.9448 7.07 58.9448 9.01V10.54H63.3048V8.91C63.3048 4.87 61.4748 2.82 57.8548 2.81C56.1748 2.81 54.8448 3.28 53.9048 4.22C52.7848 5.34 52.2348 7.07 52.2348 9.49C52.2348 13.22 53.7848 14.64 56.3148 16.64C58.8848 18.67 59.3048 19.38 59.3048 21.76C59.3048 24.14 58.4748 24.33 57.8448 24.33C57.0648 24.33 56.2548 24.04 56.2548 21.91V20.08H51.8648V21.85C51.8648 26.04 53.8348 28.17 57.7148 28.17C61.5948 28.17 63.7148 25.76 63.7148 21.21C63.7148 17.01 62.5148 15.41 58.8948 12.74ZM37.2848 28.97H37.2248C36.7148 23.65 35.1848 12.82 33.7148 3.17H24.9848V35.97C26.7648 37.66 28.5548 39.37 30.2948 41.02V27.69C30.2948 21.16 30.1148 12.56 30.0048 8.13H30.1148C30.9848 15.08 33.1048 31.3 34.3348 41.16H39.8648C41.5048 30.16 43.6148 14.77 44.4848 8.18H44.5448C44.4348 12.53 44.3548 20.57 44.3548 27.03V41C46.1748 39.27 48.0548 37.48 49.9248 35.71V3.16H41.4848C39.9648 12.27 37.9048 23.57 37.2848 28.96V28.97Z" fill="#E20613"/>
</svg>
