<svg width="160" height="160" viewBox="0 0 160 160" fill="none" xmlns="http://www.w3.org/2000/svg">
<path d="M79.6579 26.5169C77.2447 32.2885 66.2241 58.8412 64.0901 64.083C59.0059 66.1238 32.1095 77.2662 26.524 79.615C22.7574 78.0109 9.82476 72.6761 0 68.6301V1.56978e-05H68.6373C72.719 9.88923 78.147 22.8791 79.6508 26.5169H79.6579Z" fill="#F2E65E"/>
<path d="M159.309 -6.10352e-05V68.6372C149.455 72.7189 136.43 78.1183 132.727 79.6507C127.013 77.2375 100.339 66.2526 95.1899 64.0829C93.1204 59.0631 81.9423 32.0737 79.6579 26.5169C81.2262 22.7216 86.5969 9.7889 90.6714 -6.10352e-05H159.309Z" fill="#F2E65E"/>
<path d="M79.6579 132.792C78.0539 136.623 72.6904 149.491 68.6445 159.309H0V90.6714C9.85341 86.5896 22.8505 81.1903 26.5526 79.6579C32.2957 82.0425 58.9701 93.0559 64.1188 95.2257C66.1238 100.281 77.3664 127.242 79.6508 132.792H79.6579Z" fill="#F2E65E"/>
<path d="M159.309 90.7001V159.309H90.6069C86.561 149.455 81.1617 136.43 79.6508 132.792C82.0354 127.02 93.0488 100.496 95.2186 95.2544C100.274 93.1849 127.171 82.0425 132.756 79.7224C136.551 81.2906 149.484 86.6255 159.309 90.7072V90.7001Z" fill="#F2E65E"/>
</svg>
