<?xml version="1.0" encoding="UTF-8"?><svg id="Calque_2" xmlns="http://www.w3.org/2000/svg" viewBox="0 0 996.74 442.76"><defs><style>.cls-1{fill:#fff;}</style></defs><g id="Calque_1-2"><path class="cls-1" d="M51.82,138.42c10.77-16.42,30.57-35.45,51.66-33.66,2.6.22,5.6,1.7,6.54,3.34,1.1,1.92.93,6.31-.25,8.18-11.37,17.98-22.22,35.3-31.11,54.75-6.48,14.19-29.73,71.56-11.62,79.96,10.84,5.02,26.63-14.55,32.51-23.02,17.96-25.9,39.62-72.78,43.91-104.03.71-5.17,1.3-9.92,7.78-10.5,10.43-.93,21.64,4.29,26.47,14.08,3.42,6.94,2.54,14.61.1,21.76-5.64,16.52-11.72,32.18-15.75,49.27l-15.15,64.24,15.88-4.15c-.18-25.4,9.63-53.72,24.19-75.32,13.09-19.41,37.52-36.73,60.75-27.95,8.14,3.08,13.84,9.66,13.71,18.38,3.07.59,6.24,1.29,7.66,2.95s2.65,6.2,1.9,8.6l-10.78,34.37c-1.59,5.08-8.39,29.62-3.15,31.32,5.58,1.81,12.59-11.76,15-16.3,12.78-24.01,11.86-38.49,19.03-65.17,2.64-9.83,12.39-16.62,22.12-12.13,3.43,1.58,4.83,7.73,4.09,11.47l-5.29,26.66c10.15-16.23,24.66-44.59,44.35-46.84,6.66-.76,12.23,2.77,13.48,9.71s-.85,13.22-1.36,20.91c9-13.8,24.48-38.05,41.89-38.54,6.96-.19,12.76,4.05,13.28,11.18.56,7.75-.95,15.51-3.31,22.96l-11.99,37.95c-1.12,3.55-3.3,14.86-.86,17.66,3.03,3.49,11.08-6.59,12.39-9.29,6.94-14.18,14.88-27.81,18.32-43.39l17.03-77.13c3.77-17.06,9.91-32.58,17.95-47.89,5.93-11.3,13.45-21.15,24.2-27.92,9.69-6.1,21.13-8.43,32.03-5.31,9.66,2.76,16.56,10.02,18.21,19.85,6.25,37.21-38.12,74.05-68.47,88.21l-3.35,15.84c9.23-6.96,18.59-11.7,29.77-12.22,13.68-.64,24.86,6.69,28.61,20.08,4.53,16.13,1.81,32.76-4.82,48.25-8.1,18.91-21.68,34.18-40.31,43.08-12.52,5.98-26.4,8.24-39.71,4.32-9.8-2.89-15.97-10.69-17.27-20.08-8.16,16.14-22.53,35.92-42.26,29.64-15.24-4.85-14.14-24.61-11.19-37.58s7.19-26.41,10.92-38.63c.27-.87-.23-2.93-.47-3.55s-2.33.76-2.99,1.65c-15.29,20.58-27.71,45.78-33.63,71.33-1.24,5.34-3.83,9.46-7.63,11.52-4.81,2.6-10.39,3.03-14.85.04-3.62-2.43-5.66-7.81-5.44-12.4.89-19.34,11.24-45.46,13.68-66.38-17.14,14.89-32.53,59.21-39.06,79.13-2.38,7.26-10.04,11.64-17.1,9.49-5.69-1.73-7.17-7.4-8.16-13.06-5.38,8.19-10.82,15.26-19.45,18.82-7.57,3.12-16.28,2-21.19-4.89-3.16-4.43-4.25-9.88-5.58-15.54-9,16.59-27.72,40.49-48.27,33.43-8.19-2.82-12.25-10.21-14.8-19.1-7.1,1.63-13.85,4.39-20.89,7.89-9.71,46.3-20.37,112.44-55.94,146.52-15.68,15.02-36.96,21.51-58.01,15.03-17.2-5.3-28.62-20.35-29.69-38.36-1.44-24.19,13.6-49.71,29.46-67.07,21.92-23.98,48.02-42.95,77.55-57.12l10.36-48.94c-9.48,13.69-16.97,26.12-27.92,37.19-9.02,9.45-19.28,16.93-32.11,19.8-13.19,2.95-26.11-2.34-32.75-14.18-5.72-10.19-7.57-21.64-6.67-33.9,2.6-35.38,14.41-69.67,33.8-99.24ZM483.02,109.04c16.1-9.55,27.17-21.98,36.33-36.4,3.76-7.1,11.71-24.72,3.41-29.73-6.91-4.17-15.46,5.35-18.98,11.33-10.19,17.29-15.38,35.56-20.76,54.81ZM468.05,225.61c14.77,7.24,40.79-30.69,35.67-61.19-.73-4.33-3.41-8.09-7.04-9.4-10.23-3.69-20.91,9.44-27,16.96l-7.28,38.93c-.98,5.23.35,12.1,5.65,14.7ZM217.2,244.44c6.09-9.63,11.69-19.57,15.31-30.4l7.29-21.79c1.27-3.79,1-7.48-2-10.33-6.86-6.52-17.79,2.91-22.99,9.54-8.27,10.55-13.44,22.58-17.16,35.5-2.1,7.3-5.5,24.17.49,28.87,5.46,4.29,15.46-5.7,19.06-11.4ZM50.6,399.3c7.69-2.68,12.98-8.45,17.98-14.45,17.34-25.02,25.05-54.75,32.42-84.32-20.03,13.08-36.02,28.66-50.05,46.67-8.31,11.64-19.18,30.29-15.55,44.59,1.67,6.6,8.27,9.93,15.2,7.51Z"/><path class="cls-1" d="M630.55,166.71c-7.11,22.52-16.33,43.48-36.07,57.24-15.65,10.91-40.46,14.26-50.82-6.48-4.43-8.88-5.15-18.58-4.2-28.75,3.16-33.76,21.49-75.35,57.91-82.81,15.84-3.24,30.28,5.31,34.3,20.82,2.01,7.75,2,14.59,1.93,23.6l12.56-4.94c9.07-25.09,30.86-50.88,60.19-49.66,11.37.47,20.82,6.65,24.88,16.85,4.23-.47,9.2-1.21,12.66.82,4.18,2.46,4.37,8.75,2.71,12.95-2.99,7.55-25.25,59.69-14.39,62.47,7.79,2,19.71-17.31,23.28-24.02,7.83-14.67,13.49-29.96,18.93-45.85-12.04-6.44-17.63-18.92-14.89-31.95,1.37-6.54,6.25-11.78,11.59-13.01,7.35-1.69,14.03,1.09,18.2,6.99,4.78,6.77,4.37,15.68,4.19,23.55,8.87,2.58,18.3-.89,25.61-5.81,6.58-4.43,15.59-3.3,19.17,4.06,2.24,4.6,1.14,10.4-1.34,14.83-7.22,12.92-13.97,25.48-19.81,39.07-2.74,6.38-9.9,27.58-2.1,31.17,6.23,2.87,16.86-7.37,20.93-11.99.98-28.88,11.54-56.41,30-78.3,16.4-19.45,49.08-30.3,66.99-6.45,8.67-26.32,18.62-54.45,16.48-82.3-.35-4.6,2.22-8.45,7.3-8.76,6.91-.42,14.28,1.4,20.27,5.06,16.9,10.31,12.95,30.71,6.92,46.36l-16.11,41.8c-11.24,29.16-37.93,98.39-25.31,126.44,3.85,8.56,13.19,11,20.99,6.27,15.13-9.17,20.44-37.07,6.22-52.23.67-2.47,3.9-3.34,6.5-2.49,9.29,3.03,16.59,10.79,19.01,20.85,6.38,26.44-8.29,54.08-33.87,63.74-20.13,7.6-44.2.15-53.14-21.67-7.27-17.74-5.03-32.37-2.67-50.97.05-.41.13-1.57-.07-1.37-7.95,8.16-10.97,14.32-22.76,22.29-8.58,5.8-18.63,9.12-28.71,6.16-8.85-2.6-13.69-10.41-16.16-19.53l-10.08,9.55c-7.21,6.83-16.38,11.05-26.24,11.47-12.23.51-22.26-7.71-23.2-19.93-1.85-24.23,11.49-47.83,24.07-67.97l-14.98-.66c-8.02,25.76-37.01,103.71-74.35,89.88-8.26-3.06-11.79-11.42-13.04-20.13-7.42,10.13-15.26,19.18-26.22,24.29-8,3.72-17.05,5.53-25.06,1.35-18.45-9.62-13.68-36.59-10.13-54.15l-8.09,2.26ZM920.32,122.62l-1.23-10.33c-.64-5.41-5.3-8.63-10.72-8.45-25.83.86-47.86,68.98-32.54,75.07,16.62,6.62,40.21-43.42,44.49-56.29ZM691.76,178.14c9.38-12.6,14.84-26.88,20.17-41.62,1.61-4.44,3.01-7.36.43-11.18-2.23-3.3-6.16-5.11-10.71-4.19-16.78,3.41-27.54,29.4-31.76,44.32-1.69,5.97-4.02,20,2.04,23.56,6.28,3.7,15.73-5.39,19.83-10.9ZM609.14,167.28c-5.04-1.86-10.17-3.92-12.26-8.76-4.7-10.89,1.3-22.5,12.1-27.45-8.15-12.82-22.05,7.55-25.83,14.46-7.66,14.04-12.74,29.23-12.05,45.32.23,5.34,2.33,11.17,7.71,12.41,14.57,3.33,27.17-24.79,30.32-35.98Z"/></g></svg>